HIERARCHY
ROOT Hips
{
	OFFSET 0.000000 0.000000 0.000000 
	CHANNELS 6 Xposition Yposition Zposition Zrotation Yrotation Xrotation
	JOINT LeftUpLeg
	{
		OFFSET 1.363060 -1.794630 0.839290 
		CHANNELS 3 Zrotation Yrotation Xrotation
		JOINT LeftLeg
		{
			OFFSET 2.448110 -6.726130 0.000000 
			CHANNELS 3 Zrotation Yrotation Xrotation
			JOINT LeftFoot
			{
				OFFSET 2.562200 -7.039590 0.000000 
				CHANNELS 3 Zrotation Yrotation Xrotation
				JOINT LeftToeBase
				{
					OFFSET 0.157640 -0.433110 2.322550 
					CHANNELS 3 Zrotation Yrotation Xrotation
					End Site
					{
						OFFSET 0.000000 0.000000 0.000000 
					}
				}
			}
		}
	}
	JOINT RightUpLeg
	{
		OFFSET -1.305520 -1.794630 0.839290 
		CHANNELS 3 Zrotation Yrotation Xrotation
		JOINT RightLeg
		{
			OFFSET -2.542530 -6.985550 0.000000 
			CHANNELS 3 Zrotation Yrotation Xrotation
			JOINT RightFoot
			{
				OFFSET -2.568260 -7.056230 0.000000 
				CHANNELS 3 Zrotation Yrotation Xrotation
				JOINT RightToeBase
				{
					OFFSET -0.164730 -0.452590 2.363150 
					CHANNELS 3 Zrotation Yrotation Xrotation
					End Site
					{
						OFFSET 0.000000 0.000000 0.000000 
					}
				}
			}
		}
	}
	JOINT Spine
	{
		OFFSET 0.028270 2.035590 -0.193380 
		CHANNELS 3 Zrotation Yrotation Xrotation
		JOINT Spine1
		{
			OFFSET 0.056720 2.048850 -0.042750 
			CHANNELS 3 Zrotation Yrotation Xrotation
			JOINT Neck1
			{
				OFFSET -0.054170 1.746240 0.172020 
				CHANNELS 3 Zrotation Yrotation Xrotation
				JOINT Head
				{
					OFFSET 0.104070 1.761360 -0.123970 
					CHANNELS 3 Zrotation Yrotation Xrotation
					End Site
					{
						OFFSET 0.000000 0.000000 0.000000 
					}
				}
			}
			JOINT LeftArm
			{
				OFFSET 3.362410 1.200890 -0.311210 
				CHANNELS 3 Zrotation Yrotation Xrotation
				JOINT LeftForeArm
				{
					OFFSET 4.983000 -0.000000 -0.000000 
					CHANNELS 3 Zrotation Yrotation Xrotation
					JOINT LeftHand
					{
						OFFSET 3.483560 -0.000000 -0.000000 
						CHANNELS 3 Zrotation Yrotation Xrotation
						JOINT LeftHandIndex1
						{
							OFFSET 0.715260 -0.000000 -0.000000 
							CHANNELS 3 Zrotation Yrotation Xrotation
							End Site
							{
								OFFSET 0.000000 0.000000 0.000000 
							}
						}
					}
				}
			}
			JOINT RightArm
			{
				OFFSET -3.136600 1.374050 -0.404650 
				CHANNELS 3 Zrotation Yrotation Xrotation
				JOINT RightForeArm
				{
					OFFSET -5.241900 -0.000000 -0.000000 
					CHANNELS 3 Zrotation Yrotation Xrotation
					JOINT RightHand
					{
						OFFSET -3.444170 -0.000000 -0.000000 
						CHANNELS 3 Zrotation Yrotation Xrotation
						JOINT RightHandIndex1
						{
							OFFSET -0.622530 -0.000000 -0.000000 
							CHANNELS 3 Zrotation Yrotation Xrotation
							End Site
							{
								OFFSET 0.000000 0.000000 0.000000 
							}
						}
					}
				}
			}
		}
	}
}
MOTION
Frames: 6
Frame Time: 0.041667
-41.204943 18.029673 -2.596478 -16.188812 77.026354 -11.911854 -2.145995 -8.894211 -18.622867 -2.103462 8.285108 23.571774 5.997818 -9.005711 23.738256 0.768300 5.597300 15.620300 15.520602 15.328972 -0.361700 2.862512 -5.263711 16.080292 1.320701 -6.605186 -5.288012 -0.007400 -0.554100 1.522500 4.039672 0.292430 6.015252 0.873427 0.987850 -1.389338 -0.526215 6.237518 -8.074666 -2.131200 2.712700 -2.203500 -82.980306 12.414261 27.426917 30.610541 -40.001970 -14.079738 0.616121 -1.593540 -2.778924 -7.125000 0.000000 0.000000 70.035042 -9.733476 36.589185 -33.354691 39.556136 -12.770615 0.635544 0.189580 1.847497 7.125000 0.000000 0.000000 
-41.203813 18.025975 -2.600074 -16.223011 77.051214 -11.916868 -2.161188 -8.840611 -18.721494 -2.094156 8.321238 23.685373 6.009666 -9.062703 23.950746 0.791700 5.679800 15.858100 15.507325 15.306745 -0.439197 2.847456 -5.299739 16.181583 1.311376 -6.583255 -5.336706 -0.007600 -0.561300 1.542300 4.037955 0.274248 6.031835 0.869622 0.980893 -1.375437 -0.595298 6.291417 -8.212200 -2.169400 2.736500 -2.251100 -82.942330 12.422016 27.492678 30.670945 -40.049294 -14.125127 0.618023 -1.594219 -2.816617 -7.125000 0.000000 0.000000 70.065410 -9.697946 36.506330 -33.300967 39.516110 -12.739194 0.639734 0.193287 1.955419 7.125000 0.000000 0.000000 
-41.203710 18.020119 -2.603670 -16.389190 77.092808 -12.060262 -2.155273 -8.821605 -18.827898 -2.081897 8.369883 23.842029 6.055709 -9.251769 24.130935 0.823700 5.790800 16.178600 15.518402 15.262265 -0.514537 2.832978 -5.332209 16.275452 1.313896 -6.591899 -5.378111 -0.006000 -0.501300 1.377500 4.046019 0.233570 6.038931 0.897517 0.955459 -1.423360 -1.130595 6.221938 -7.950128 -2.416300 2.704900 -2.101300 -82.937974 12.477150 27.530167 30.754060 -40.114542 -14.188823 0.621487 -1.595897 -2.846924 -7.125000 0.000000 0.000000 70.061945 -9.698405 36.475653 -33.266005 39.492133 -12.715025 0.634257 0.190067 1.896686 7.125000 0.000000 0.000000 
-41.203402 18.015085 -2.607471 -16.615415 77.141217 -12.240536 -2.162595 -8.775967 -18.968044 -2.033993 8.447724 24.038114 6.133649 -9.597958 23.487052 0.680800 5.275400 14.695900 15.538117 15.226573 -0.602334 2.820826 -5.360679 16.351580 1.343340 -6.667635 -5.364172 -0.003000 -0.356200 0.978600 4.075924 0.239699 6.081492 0.927948 0.959889 -1.337195 -1.226256 6.232095 -8.211554 -2.464700 2.706700 -2.206200 -82.900453 12.444836 27.671177 30.819908 -40.163465 -14.234445 0.622477 -1.595654 -2.865051 -7.125000 0.000000 0.000000 70.075640 -9.672066 36.332853 -33.292741 39.509705 -12.737292 0.635069 0.189844 1.881725 7.125000 0.000000 0.000000 
-41.200114 18.008921 -2.612916 -17.382472 77.175631 -12.948431 -2.043530 -8.798570 -19.086000 -2.008864 8.497223 24.212255 6.150463 -9.658766 23.851157 0.744700 5.512300 15.375800 15.663896 15.160478 -0.695026 2.813189 -5.389311 16.424338 1.338098 -6.654427 -5.393638 -0.001300 -0.237000 0.651300 4.137052 0.233978 6.076481 0.934532 0.959103 -1.350927 -1.214885 6.324089 -8.552570 -2.459600 2.749100 -2.350800 -82.897649 12.506659 27.771616 30.886567 -40.219700 -14.285492 0.625145 -1.596481 -2.874703 -7.125000 0.000000 0.000000 70.060483 -9.723585 36.253906 -33.316296 39.527312 -12.757995 0.637206 0.193142 1.906424 7.125000 0.000000 0.000000 
-41.198060 18.002757 -2.617744 -17.871602 77.222076 -13.395207 -1.992621 -8.806826 -19.212523 -1.969934 8.570903 24.428396 6.190579 -9.846258 23.802384 0.732000 5.466200 15.243100 15.732333 15.098510 -0.773463 2.805153 -5.411459 16.483684 1.345949 -6.674730 -5.403744 -0.000400 -0.134800 0.370300 4.174384 0.219085 6.087389 0.949046 0.952173 -1.348352 -1.357621 6.358127 -8.738202 -2.528200 2.764000 -2.418700 -82.881608 12.545089 27.868283 30.957317 -40.276286 -14.338254 0.627294 -1.597079 -2.894269 -7.125000 0.000000 0.000000 70.058964 -9.737050 36.166934 -33.315590 39.526638 -12.761320 0.637690 0.193797 1.903402 7.125000 0.000000 0.000000 
